<?xml version="1.0" encoding="utf-8"?>
<!-- Generator: Adobe Illustrator 25.4.1, SVG Export Plug-In . SVG Version: 6.00 Build 0)  -->
<svg version="1.1" id="Layer_1" xmlns="http://www.w3.org/2000/svg" xmlns:xlink="http://www.w3.org/1999/xlink" x="0px" y="0px"
	 viewBox="0 0 500 500" style="enable-background:new 0 0 500 500;" xml:space="preserve">
<style type="text/css">
	.st0{fill:#307730;}
	.st1{fill:#FFFFFF;}
	.st2{fill:#9CC244;}
</style>
<g id="Group_87" transform="translate(121.271 63.317)">
	<g id="Group_86" transform="translate(0 0)">
		<g id="Path_69">
			<path id="Path_69-2" class="st0" d="M91.4-36C27.1-49.9-51.2,37-83.1,157.5c-31.7,120.6-5.1,229.9,59.2,243.8
				c56.4,12.2,307.4,38.6,357.1-126.7c3.5-11.3,19.2-13.4,21-21.9c1.9-8.8-12.5-19.7-10.4-29.3C390.2,16.5,91.6-35.7,91.4-36"/>
			<path id="Path_70" class="st1" d="M77.8,418.1c-34.7,0.2-69.3-3-103.3-9.5c-22.3-5.5-41.4-20.1-52.5-40.2
				c-29.4-47.9-34.2-129.6-12.3-212.6c15.7-59.4,43-112.8,76.7-150.2C21.2-33.1,59-50.3,92.8-43.1l-1.6,7.2l0,0l1.6-7.2h0.5
				c28.6,5.6,173.5,37.9,235.2,132.4c26.2,40.2,34.3,89.5,22.4,135.9c-0.4,1.9,2.5,6.5,4.4,9.7c4.5,5.5,6.6,12.5,6,19.6
				c-2,6.2-6.5,11.2-12.3,13.9c-4.1,2.6-7.8,5.1-8.8,8.5c-11.6,39.4-37.2,73.2-71.9,95.2c-33.5,20.8-71,34.3-110,39.7
				C131.6,416,104.8,418.2,77.8,418.1z M77.5-30C52.1-30,24.1-14.4-2.7,15.4C-35,51.2-61.1,102.3-76.2,159.6
				C-97.2,239-93,316.2-65.7,360.8c9,16.7,24.6,28.8,43,33.5c58.9,10.9,119.1,12,178.4,3.2c92.7-15.3,150-57.3,170.3-124.8
				c2.8-7.1,8-13,14.8-16.6c1.8-1.2,5.6-3.7,5.8-4.8c0.4-1.6-2.6-6.2-4.2-8.8c-4.7-5.8-6.9-13.2-6.2-20.6
				c11-42.6,3.6-87.8-20.4-124.6c-25.6-39.1-69.8-71.7-131.5-97.3C154-12.5,122.6-22,90.5-28.6c-0.4,0-0.8-0.2-1.2-0.4
				C85.4-29.7,81.4-30,77.5-30L77.5-30z"/>
		</g>
	</g>
	<g id="Path_68" transform="translate(5.899 6.566)">
		<path id="Path_68-2" class="st2" d="M-3.9,363c-53.2-11.5-75.3-102-48.8-201.8S38.4-10.5,91.7,1.1c53.2,11.5,75.3,102,48.8,201.8
			S49.6,374.5-3.9,363"/>
	</g>
	<g id="Group_86-2" transform="translate(5.594 6.272)">
		<path id="Path_71" class="st1" d="M153.3,125v-12.2c0-1.1-0.2-2.1-0.2-3.3c0-2.1-0.2-4.4-0.4-6.7v-0.2c-0.2-3.2-0.5-6-0.9-9
			l-0.2-1.1c0-0.5-0.2-0.9-0.2-1.4s-0.2-1.1-0.2-1.6c-0.2-2.1-0.5-4.2-0.9-6.3c0-0.4-0.2-0.7-0.2-1.1V82l-0.5-3.7v-0.2
			c-0.2-0.5-0.2-1.2-0.4-1.8v-0.6c-0.4-1.2-0.5-2.6-0.9-3.9s-0.5-2.5-0.9-3.9c-0.4-1.2-0.5-2.5-0.9-3.7c-0.4-1.1-0.6-2.2-0.9-3.3
			c-0.2-0.9-0.5-1.8-0.9-2.6c-0.1-0.4-0.3-0.8-0.4-1.2c-0.2-0.5-0.4-1.2-0.5-1.8l-0.2-0.2c-0.2-0.4-0.4-0.5-0.4-0.9
			c-0.5-2-1.3-4-2.3-5.8c-0.2-0.2-0.2-0.5-0.4-0.9c-0.2-0.5-0.4-0.9-0.5-1.4c-0.9-2.1-1.8-4.2-3-6.7v-0.3l-0.2-0.5
			c-1.1-2.3-2.3-4.4-3.5-6.5c-0.4-0.8-0.8-1.5-1.4-2.1c-0.5-1.1-1.2-1.9-1.8-2.8v-0.5l-1.1-1.1l-0.2-0.2l-0.2-0.4
			c-0.2-0.4-0.5-0.8-0.9-1.1l-0.5-0.5c-0.2-0.4-0.5-0.7-0.7-1.1c-0.2-0.2-0.4-0.4-0.4-0.5l-0.2-0.4l0,0c-0.2-0.2-0.4-0.5-0.5-0.7
			l0,0c-0.2-0.2-0.2-0.4-0.4-0.5c-0.4-0.5-0.7-0.9-1.1-1.4c-0.2-0.2-0.4-0.5-0.7-0.7l-0.5-0.5l-4.1-4.1l-0.2-0.2l-1.1-1.1l-0.4-0.4
			c-0.7-0.5-1.2-1.1-1.8-1.4c-1-0.9-2-1.7-3.2-2.5L112.4,8c-1.6-1.1-3.2-2.1-4.9-3.2c-0.4-0.2-0.7-0.5-1.1-0.7
			c-0.2-0.2-0.4-0.2-0.5-0.4l-0.4-0.2c-0.6-0.2-1.2-0.5-1.8-0.9l-2.1-1.1c-0.4-0.3-0.9-0.5-1.4-0.5c-0.1,0-0.3-0.1-0.4-0.2
			c-0.5-0.2-0.9-0.4-1.4-0.5c-0.2,0-0.4-0.2-0.5-0.2C97.6,0,97.4,0,97.1-0.2l-0.5-0.2C95.4-0.5,94.2-0.7,93-1l-0.5,2.1L92.9-1
			c-1.8-0.4-3.5-0.5-5.3-0.7H87c-0.6-0.1-1.3-0.2-1.9-0.2c-0.5,0-1.1-0.2-1.4-0.2h-5.1c-0.8,0-1.7,0-2.5,0.2h-0.3
			c-1.9,0.2-4.1,0.4-6,0.7c-1.9,0.4-4.1,0.9-6.5,1.6c-0.4,0.2-0.7,0.2-0.9,0.4C62,0.9,61.7,0.9,61.3,1c-1.3,0.3-2.5,0.7-3.7,1.2
			l-1.6,0.5c-0.2,0-0.4,0.2-0.5,0.2c-0.7,0.2-1.4,0.5-2.1,0.9c-0.7,0.2-1.3,0.5-1.9,0.9h-0.4l-0.5,0.4c-0.3,0.1-0.6,0.2-0.9,0.4
			l-0.4,0.2C49.2,5.8,49,5.8,48.9,6c-0.3,0.1-0.6,0.3-0.9,0.5c-0.4,0.2-0.5,0.2-0.7,0.4l-1.1,0.5c-0.3,0.1-0.5,0.3-0.7,0.5h-0.4
			l-4.4,2.5c-0.9,0.4-1.7,0.9-2.5,1.6c-1.9,1.2-3.9,2.5-5.8,3.9h-0.2l-0.7,0.5c-2.1,1.6-4.2,3.3-6.5,5.3c-0.8,0.6-1.6,1.2-2.3,1.9
			c-1.4,1.2-3,2.6-4.4,4.1c-0.2,0.2-0.2,0.2-0.4,0.2c-0.2,0.2-0.5,0.4-0.7,0.7l-4.1,4.1c-0.9,0.9-1.8,1.8-2.6,2.8
			c-0.9,0.9-1.8,1.9-2.8,2.8c-1.8,1.9-3.5,4.1-5.1,6l-0.2,0.4c-0.2,0.4-0.5,0.5-0.7,0.9c-0.4,0.4-0.6,0.8-0.9,1.2l-2.1,2.6
			c-0.3,0.3-0.5,0.7-0.7,1.1v0.2l-0.4,0.4c-0.7,0.9-1.2,1.8-1.9,2.6c-0.7,0.9-1.4,1.9-2.1,2.8l-0.2,0.2c-0.2,0.4-0.5,0.7-0.7,1.1
			c-0.3,0.5-0.7,1-1.1,1.4c-0.9,1.2-1.8,2.6-2.6,3.9c-1.1,1.4-1.9,2.8-2.8,4.2l-0.4,0.4c-2.1,3.2-3.9,6.2-5.5,8.8
			c-0.4,0.5-0.5,1.1-0.9,1.6c-0.2,0.5-0.5,0.9-0.7,1.4l-1.6,2.6l-1.6,2.6l-0.4,0.7v0.4l-0.2,0.2c0,0.2-0.2,0.2-0.2,0.4
			c-0.2,0.4-0.4,0.5-0.5,0.9l-1.1,2.1l-0.5,1.1v0.2l-0.5,1.1c-0.3,0.5-0.5,0.9-0.7,1.4l-1.4,2.5l-0.2,0.4l-1.1,2.1
			c-0.4,0.7-0.8,1.4-1.1,2.1l-0.5,1.1l-0.2,0.4c0,0.3-0.1,0.5-0.4,0.7l-0.9,1.6v0.2l-0.4,0.9c-0.7,1.6-1.4,3-1.9,4.6
			c-0.3,0.5-0.6,1.1-0.7,1.8c-0.2,0.5-0.4,1.1-0.7,1.6c-0.9,1.9-1.6,3.9-2.5,5.8c-0.5,1.4-1.2,2.8-1.8,4.4l-0.2,0.5v0.2
			c-0.5,1.6-1.2,3.2-1.8,4.8c-0.7,1.8-1.2,3.3-1.9,5.3l-0.5,1.6c-0.2,0.7-0.4,1.2-0.5,1.8c-0.8,2-1.4,4.1-1.9,6.2l-1.2,3.7
			c-0.3,1.1-0.6,2.1-1.1,3.2c-0.2,0.7-0.4,1.3-0.7,1.9c-0.1,0.4-0.3,0.8-0.4,1.2l-0.5,1.6c-0.7,2.6-1.6,5.1-2.1,7.8
			c-0.4,1.8-0.9,3.5-1.4,5.3c-0.4,1.4-0.7,2.6-1.1,3.9v0.2c-0.2,0.9-0.4,1.8-0.7,2.6c-0.2,0.7-0.4,1.4-0.5,2.3
			c-0.2,0.7-0.2,1.2-0.4,1.8c-0.2,0.4-0.2,0.9-0.4,1.2v0.7c-0.5,2.8-1.1,5.3-1.6,7.8c-0.2,1.1-0.4,2.1-0.7,3.2v0.4
			c-0.2,1.2-0.4,2.5-0.5,3.9c-0.4,2.3-0.9,4.8-1.1,7.2v0.4c-0.5,3.7-0.9,7.4-1.2,10.4c-0.1,0.6-0.2,1.3-0.2,1.9c0,0.5,0,1.1-0.2,1.6
			v0.2c-0.2,2.3-0.4,4.2-0.5,6.2v1.6c0,0.4-0.2,0.7-0.2,1.2v1.4c0,0.5-0.2,1.2-0.2,1.8v1.1c0,0.5-0.2,1.1-0.2,1.6v5.8
			c0,0.9,0,1.8-0.2,2.6v5.1c0,5.6,0.2,10.9,0.5,16.4c0,0.4,0,0.8,0.2,1.2v0.9l0.5,6.7c0,0.6,0,1.2,0.2,1.8c0.2,1.1,0.3,2.2,0.4,3.3
			c0.2,1.4,0.4,2.6,0.5,3.9c0,0.8,0.1,1.5,0.4,2.3l1.1,5.8l0.2,0.4v0.5c0,0.4,0.2,0.7,0.2,1.1c0,0.4,0.2,0.5,0.2,0.7v0.4
			c0.3,2.3,0.9,4.5,1.6,6.7c0.5,2.1,1.1,4.2,1.6,6.2c0.1,0.5,0.3,1.1,0.5,1.6l0.5,1.4c0.4,0.9,0.5,1.8,0.9,2.6
			c0.4,0.9,0.5,1.8,0.9,2.6c0.2,0.5,0.4,1.1,0.7,1.6c0.7,2.1,1.5,4.2,2.5,6.2l0.4,0.9c0.6,1.7,1.4,3.2,2.3,4.8l0.5,1.1l0.2,0.2
			l0.2,0.5c1.9,3.9,4.1,7.2,6,10.6l0.4,0.4c0.2,0.2,0.2,0.2,0.2,0.4v0.5l0.7,0.7c0.2,0.3,0.4,0.6,0.5,0.9l0.2,0.2
			c0.2,0.4,0.5,0.8,0.9,1.1l0.5,0.5c0.2,0.4,0.5,0.7,0.7,1.1c0.2,0.2,0.2,0.4,0.4,0.5l0.2,0.4l0,0c0.2,0.2,0.4,0.5,0.5,0.7l0,0
			c0.2,0.2,0.2,0.4,0.4,0.5c0.4,0.5,0.7,0.9,1.1,1.4c0.2,0.3,0.4,0.6,0.7,0.9l0.5,0.5l0.4,0.4l0.2,0.2l0.9,0.9l0,0l0.9,0.9
			c2.4,2.5,5.1,4.7,7.9,6.7l0.4,0.4c0.3,0.2,0.6,0.4,0.9,0.5c0.4,0.3,0.9,0.6,1.4,0.9c0.7,0.3,1.2,0.7,1.8,1.2
			c0.4,0.3,0.9,0.6,1.4,0.7c1.4,0.7,2.8,1.4,4.1,2.1l1.2,0.7c0.7,0.3,1.3,0.6,1.9,0.9l1.6,0.5c0.4,0.2,0.8,0.3,1.2,0.4l0.5,0.2h0.2
			c0.2,0,0.4,0.2,0.5,0.2c1.2,0.4,2.3,0.5,3.5,0.9l0.7,0.2c1.6,0.3,3.2,0.6,4.8,0.7h1.4L3,368c1.2,0.1,2.3,0.2,3.5,0.2h1.9
			c1.7,0,3.4,0,5.1-0.2c0.5,0,1.1,0,1.6-0.2l1.6-0.2c0.7-0.2,1.4-0.2,2.1-0.4c0.3,0,0.6,0,0.9-0.2l0.7-0.2c3.5-0.8,7-1.7,10.4-2.8
			l0.4-0.2c0.2,0,0.4-0.2,0.5-0.2c0.4-0.2,0.5-0.2,0.9-0.4c0.1,0,0.3-0.1,0.4-0.2c0.2-0.2,0.5-0.2,0.7-0.4c0.7-0.2,1.4-0.5,2.1-0.9
			c0.7-0.2,1.3-0.5,1.9-0.9c0.3-0.1,0.6-0.2,0.9-0.4c0.2,0,0.4-0.2,0.7-0.4c0.7-0.3,1.3-0.7,1.9-1.1c0.2-0.2,0.5-0.2,0.7-0.4
			l1.1-0.5c0.2-0.2,0.5-0.2,0.7-0.4l0,0l0.7-0.4c0.2-0.2,0.5-0.2,0.7-0.4c0.1-0.1,0.2-0.2,0.4-0.2l0.4-0.2c3.7-2.1,7.2-4.4,10.6-6.9
			c0.5-0.4,1.1-0.9,1.6-1.2c1.4-1.1,2.8-2.1,4.2-3.3c0.3-0.1,0.5-0.3,0.7-0.5l0.5-0.4c1.8-1.5,3.5-3.1,5.3-4.6l0.4-0.4
			c0.3-0.2,0.6-0.4,0.9-0.7c1.2-1.2,2.5-2.3,3.7-3.5l0.5-0.5c0.5-0.4,1-0.9,1.4-1.4l0.7-0.7c0.7-0.9,1.5-1.7,2.3-2.5
			c0.9-0.9,1.6-1.8,2.5-2.6c0.7-0.9,1.6-1.8,2.3-2.6c0.7-0.9,1.6-1.8,2.3-2.6l0.4-0.5c0-0.1,0.1-0.2,0.2-0.2c0,0,0,0,0,0l0.4-0.5
			c0.4-0.4,0.5-0.7,0.9-1.1l4.2-5.3l0.2-0.2c0.2-0.2,0.4-0.5,0.5-0.7l0.5-0.5c1.6-1.9,3-4.1,4.4-6.2l0.7-0.9
			c0.2-0.3,0.4-0.6,0.5-0.9l0.2-0.2c1.2-1.8,2.5-3.5,3.7-5.6c0.3-0.5,0.6-1,1.1-1.4l0.2-0.4c3.1-4.6,5.9-9.4,8.5-14.3
			c0.4-0.7,0.9-1.4,1.2-2.3l0.2-0.5v-0.2c0.2-0.4,0.4-0.8,0.7-1.1l0.2-0.2c0.4-0.7,0.8-1.4,1.1-2.1c0.1-0.3,0.3-0.6,0.5-0.9l0.4-0.5
			c0.4-0.7,0.7-1.4,1.1-2.3c0.2-0.2,0.2-0.5,0.4-0.7c0-0.1,0.1-0.3,0.2-0.4l0.2-0.4c0-0.2,0.2-0.4,0.4-0.5l0.2-0.4l0.2-0.4l1.1-2.1
			c0.4-0.7,0.8-1.4,1.1-2.1c0.2-0.3,0.3-0.6,0.4-0.9c0.4-0.7,0.7-1.6,1.1-2.3l0.2-0.5v-0.2c0.2-0.5,0.5-1.1,0.7-1.6
			c2.5-5.5,4.9-10.9,7-16.2c0.2-0.4,0.4-0.9,0.5-1.2s0.2-0.5,0.4-0.9l3-7.6c0-0.2,0.2-0.4,0.2-0.5c0.2-0.4,0.2-0.5,0.4-0.9
			c0.5-1.4,0.9-2.6,1.4-4.1c0.5-1.4,1.1-3,1.6-4.6c0-0.2,0.2-0.5,0.2-0.7c0.1-0.5,0.3-1,0.5-1.4l2.1-7V216l0.5-1.6v-0.2
			c0.2-0.5,0.3-0.9,0.4-1.4c0.4-1.6,0.9-3.2,1.2-4.8c0.4-1.1,0.7-2.2,0.9-3.3c0.7-2.8,1.4-5.5,1.9-7.9c0.1-0.3,0.2-0.6,0.2-0.9
			l0.7-2.8c0.5-2.6,1.1-4.9,1.4-7.2c0.2-0.8,0.3-1.6,0.4-2.5l1.6-8.6v-0.9c0-0.4,0.2-0.5,0.2-0.9c0.2-0.9,0.3-1.9,0.4-2.8
			c0.1-1.4,0.4-2.8,0.7-4.2c0.2-0.5,0.2-0.9,0.2-1.4c0-0.3,0-0.6,0.2-0.9l0.4-3c0.7-5.1,1.2-9.9,1.6-15V145c0-0.5,0.2-1.1,0.2-1.4
			v-1.1c0-0.5,0.2-1.1,0.2-1.4v-1.4c0-0.5,0.2-1.2,0.2-1.8v-1.1c0-0.5,0.2-1.1,0.2-1.6v-5.8c0-0.9,0-1.8,0.2-2.6L153.3,125z
			 M10.4,332.5l33.3-126.2l23.6,97.3c1.6,7.7-0.6,15.8-6,21.5c-0.4,0.2-0.5,0.5-0.9,0.7c-0.4,0.4-0.7,0.5-1.1,0.9l-0.7,0.7l-3.2,2.6
			l-0.5,0.5c-3.5,2.7-7.3,5.2-11.1,7.4l-0.4,0.2c-0.8,0.3-1.6,0.7-2.3,1.2c-0.6,0.4-1.3,0.7-1.9,1.1c-0.5,0.1-1,0.4-1.4,0.7
			c-0.4,0.2-0.9,0.4-1.2,0.5c-0.5,0.2-1.1,0.5-1.6,0.7l-1.1,0.5c-1.5,0.5-2.9,1.1-4.2,1.8l-0.2,0.2c-3.4,1.1-6.9,2-10.4,2.6h-0.7
			c-0.9,0.2-1.9,0.3-2.8,0.4h-0.5c-0.7,0-1.3,0-1.9,0.2h-0.4c-0.9-0.2-1.7-0.8-2.1-1.6C9,342,8.9,337,10.4,332.5z M141,131.9
			c0,1.4,0,2.7-0.2,4.1v2.5c0,0.7-0.2,1.6-0.2,2.3c-0.1,1.1-0.2,2.2-0.2,3.3c0,1.1,0,2.2-0.2,3.3v0.7c-0.5,6.3-1.2,12.7-2.1,19
			l-0.2,0.7c-0.2,0.9-0.4,1.9-0.5,3c-0.2,0.9-0.2,1.8-0.4,2.6v0.4l0,0c-0.1,0.3-0.1,0.6-0.2,0.9c-0.2,1.1-0.4,2.1-0.5,3.3
			c-3.2,14.1-9.3,13.9-10,13.7L57.4,177l73.9-81.8c1.4-1.6,3.9-3.3,5.3-3h0.2c0.9,0.2,1.9,1.8,2.6,5.6c0,0.4,0.2,0.7,0.2,1.2
			c0,0.5,0.2,1.2,0.2,1.8l0.7,6.3c0.5,5.9,0.8,11.7,0.7,17.6v0.5c0,2.3,0,4.2-0.2,6.3L141,131.9L141,131.9z M55.8,160.4L89,34.7
			c0.9-3.5,4.4-12.7,9-12.7H99c0.2,0,0.4,0,0.5,0.2c0.2,0.2,0.5,0.2,0.7,0.4c0.2,0.2,0.4,0.4,0.5,0.4l3,1.9l0.4,0.2
			c2.9,2,5.6,4.2,8.1,6.7l0.2,0.2c0.5,0.4,0.9,0.9,1.2,1.4c0.6,0.5,1.1,1.1,1.6,1.8c0.2,0.4,0.5,0.8,0.9,1.1
			c0.3,0.3,0.6,0.7,0.9,1.1l0.2,0.2c0.6,0.7,1.1,1.4,1.6,2.1l0.2,0.2c0.8,1,1.6,2.1,2.3,3.2l0.4,0.7c2.3,3.7,4.4,7.5,6.3,11.5
			l1.8,3.9l0.2,0.5L130,60c0.2,0.2,0.2,0.5,0.4,0.9c0.2,0.4,0.4,0.9,0.5,1.2c1.8,7.6-0.2,15.6-5.2,21.5L55.8,160.4z M21.3,61
			c-1.6-7.7,0.6-15.8,6-21.5c0.4-0.2,0.5-0.5,0.9-0.7c0.4-0.4,0.7-0.5,1.1-0.9l4.1-3.3l0.4-0.4c3.5-2.7,7.3-5.2,11.1-7.4l0.4-0.2
			c1.4-0.7,2.6-1.4,3.9-2.1l0.4-0.2c0.8-0.5,1.6-0.8,2.5-1.1c0.5-0.2,1.1-0.5,1.6-0.7c0.4-0.2,0.9-0.4,1.2-0.5
			c0.7-0.4,1.2-0.5,1.9-0.9c0.7-0.4,1.4-0.5,2.3-0.9l0.2-0.2c3.4-1.2,7-2.1,10.6-2.6h0.7c0.9-0.2,1.9-0.3,2.8-0.4h2.5l0.5,0.2
			c0.9,0.2,1.7,0.8,2.1,1.6c1.4,4.4,1.4,9,0.2,13.4L45.3,158.3L21.3,61z M121.8,207.3c3.2,0.9,5.3,5.6,2.3,16.2l-1.1,3.2
			c0,0.2-0.2,0.4-0.2,0.5l-0.2,0.5c-0.4,0.9-0.7,1.7-0.9,2.6c-0.4,1.1-0.7,1.9-1.1,3l-0.2,0.5c-2.6,6.7-5.5,13.2-7.6,18.2l-0.2,0.7
			c-0.5,1.1-1.1,2.1-1.6,3.3c-0.5,0.9-0.9,1.8-1.2,2.8c-0.4,0.7-0.7,1.2-1.1,1.9c-0.3,0.7-0.7,1.3-1.1,1.9l-2.1,4.2l-3.5,6.5
			c-3.2,5.6-6.3,10.8-9.5,15.5l-0.4,0.5c-0.5,0.7-0.9,1.4-1.4,2.1c-0.5,0.7-1,1.4-1.4,2.1l-0.5,0.5l-0.2,0.4
			c-0.2,0.4-0.5,0.7-0.7,1.1c-0.4,0.4-0.6,0.8-0.9,1.2c-3,3.3-4.9,3.9-5.6,3.9l0,0c-1.2-0.2-2.5-3-3-4.9L53.2,192.5L121.8,207.3z
			 M-10.6,342.7c-0.2-0.2-0.4-0.2-0.5-0.4c-0.2-0.2-0.4-0.2-0.5-0.4l-0.7-0.5h-0.4l-2.5-1.4l-0.4-0.2c-2.9-1.9-5.6-4.2-8.1-6.7
			l-0.2-0.2c-0.5-0.4-0.9-0.9-1.2-1.4c-0.6-0.5-1.1-1.1-1.6-1.8c-0.2-0.4-0.5-0.8-0.9-1.1s-0.6-0.7-0.9-1.1l-0.2-0.2
			c-0.5-0.7-1.1-1.4-1.8-2.3c-0.8-1.1-1.6-2.2-2.3-3.3l-0.2-0.5c-2.3-3.7-4.4-7.5-6.3-11.5l-1.8-3.9l-0.2-0.5l-0.2-0.5
			c-0.2-0.2-0.2-0.5-0.4-0.9s-0.4-0.9-0.5-1.2c-1.8-7.6,0.2-15.6,5.3-21.5l69.6-77.2L-0.4,329.8c0,0.2,0,0.2-0.2,0.4
			c-1.1,3.2-4.8,13.2-9.7,12.2v0.2C-10.3,342.8-10.5,342.7-10.6,342.7c0.4,0,0.4,0.2,0.4,0.2C-10.4,342.8-10.5,342.7-10.6,342.7
			L-10.6,342.7z M-10.6,345.3v-1.6l0.5-0.7L-10.6,345.3L-10.6,345.3z M-33.4,157.4c-3.2-0.9-5.3-5.6-2.3-16.2l1.1-3.2
			c0-0.2,0.2-0.4,0.2-0.5l0.2-0.5c0.4-0.9,0.7-1.7,0.9-2.6c0.4-1.1,0.7-1.9,1.1-3l0.2-0.9c2.5-6.3,5.1-12.5,7.4-18l0.2-0.7
			c0.5-1.1,1.1-2.1,1.6-3.3c0.5-0.9,0.9-1.8,1.2-2.8c0.4-0.7,0.7-1.2,1.1-1.9c0.3-0.7,0.7-1.3,1.1-1.9c0.3-0.7,0.8-1.5,1.2-2.1
			c0.3-0.7,0.7-1.3,1.1-1.9l0.4-0.5c1.1-1.8,1.9-3.7,2.8-5.3l0.4-0.5c3.2-5.6,6.2-10.6,9.3-15.3l0.4-0.4l0.4-0.5
			c0.5-0.7,0.9-1.4,1.4-2.1c0.5-0.7,1-1.4,1.4-2.1l0.5-0.5l0.2-0.4c0.2-0.4,0.5-0.7,0.7-1.1c0.4-0.5,0.7-0.9,1.1-1.4
			c2.3-2.6,4.2-4.1,5.5-3.9c1.2,0.2,2.5,2.8,3,4.6l25,103.5L-33.4,157.4z M-48.7,275.3L-48.7,275.3l0.5-2.6
			c-0.9-0.2-1.9-1.8-2.6-5.6c0-0.4-0.2-0.7-0.2-1.2c0-0.5-0.2-1.2-0.2-1.8l-0.2-0.9c-0.2-1.6-0.4-3.2-0.5-4.9v-0.7
			c-0.5-5.9-0.8-11.7-0.7-17.6v-0.5c0-2.3,0-4.2,0.2-6.3v-0.4c0-1.4,0-2.7,0.2-4.1v-2.5c0-0.7,0.2-1.6,0.2-2.3
			c0.1-1.1,0.2-2.2,0.2-3.3c0-1.1,0-2.2,0.2-3.3v-0.7c0.5-6.3,1.2-12.7,2.1-19l0.2-0.7c0.2-0.9,0.4-1.9,0.5-3
			c0.2-0.9,0.2-1.8,0.4-2.6v-0.4l0,0c0.1-0.3,0.1-0.6,0.2-0.9c0.2-1.1,0.4-2.1,0.5-3.3c3.2-14.1,9.3-13.9,10-13.7l68.5,14.8
			l-73.5,81.8c-1.4,1.4-4.1,3.5-5.5,3.2L-48.7,275.3L-48.7,275.3z"/>
	</g>
</g>
</svg>
